<svg width="64" height="64" viewBox="0 0 64 64" fill="none" xmlns="http://www.w3.org/2000/svg">
  <!-- Voting box body -->
  <rect x="12" y="20" width="40" height="36" rx="4" fill="#0EA5E9" stroke="#0284C7" stroke-width="2"/>
  
  <!-- Lock icon on box -->
  <rect x="28" y="30" width="8" height="10" rx="1" fill="#FFFFFF"/>
  <path d="M30 30V28C30 25.7909 31.7909 24 34 24C36.2091 24 38 25.7909 38 28V30" stroke="#0EA5E9" stroke-width="2" stroke-linecap="round"/>
  
  <!-- Vote slot -->
  <rect x="20" y="20" width="24" height="4" rx="2" fill="#1E40AF"/>
  
  <!-- Security shield overlay -->
  <path d="M32 12L38 15V22C38 28 32 34 32 34C32 34 26 28 26 22V15L32 12Z" fill="#10B981" opacity="0.8"/>
  <path d="M32 12L38 15V22C38 28 32 34 32 34C32 34 26 28 26 22V15L32 12Z" stroke="#059669" stroke-width="1.5" fill="none"/>
  
  <!-- Checkmark in shield -->
  <path d="M29 22L31 24L35 20" stroke="#FFFFFF" stroke-width="2" stroke-linecap="round" stroke-linejoin="round"/>
</svg>

